<svg viewBox="0 0 100 100" xmlns="http://www.w3.org/2000/svg" width="100" height="100" aria-hidden="true">
  <!-- Full red circle background, no outer stroke/contour -->
  <circle cx="50" cy="50" r="50" fill="#EE1C25"/>
  <!-- Large star centered -->
  <polygon points="50,33 56,47 70,50 57,58 61,72 50,64 39,72 43,58 30,50 44,47" fill="#FFDE00"/>
  <!-- Small stars inside -->
  <polygon points="70,25 72,31 78,32 73,37 75,43 70,39 65,43 67,37 62,32 68,31" fill="#FFDE00"/>
  <polygon points="78,36 80,41 85,42 81,46 83,51 78,48 73,51 75,46 70,42 76,41" fill="#FFDE00"/>
  <polygon points="74,53 76,58 81,59 77,63 79,68 74,65 69,68 71,63 66,59 72,58" fill="#FFDE00"/>
  <polygon points="65,62 67,67 72,68 68,72 70,77 65,73 60,77 62,72 57,68 63,67" fill="#FFDE00"/>
</svg>