<svg viewBox="0 0 100 100" xmlns="http://www.w3.org/2000/svg">
  <!-- Red circle background -->
  <circle cx="50" cy="50" r="48" fill="#EE1C25"/>
  <!-- Large star centered -->
  <polygon points="50,35 55,48 68,50 57,58 60,70 50,63 40,70 43,58 32,50 45,48" fill="#FFDE00"/>
  <!-- Small stars positioned around in arc, inside the circle -->
  <polygon points="68,28 70,33 75,34 71,38 72,43 68,40 64,43 65,38 61,34 66,33" fill="#FFDE00"/>
  <polygon points="75,38 76,42 80,43 77,46 78,50 75,48 72,50 73,46 70,43 74,42" fill="#FFDE00"/>
  <polygon points="72,52 73,56 77,57 74,60 75,64 72,62 69,64 70,60 67,57 71,56" fill="#FFDE00"/>
  <polygon points="65,60 66,64 70,65 67,68 68,72 65,70 62,72 63,68 60,65 64,64" fill="#FFDE00"/>
</svg>