<svg viewBox="0 0 100 100" xmlns="http://www.w3.org/2000/svg" width="100" height="100" aria-hidden="true">
  <!-- Full white circle, NO stroke/contour (removed for clean round flag) -->
  <circle cx="50" cy="50" r="50" fill="#ffffff"/>
  <!-- Taegeuk -->
  <path d="M50 2 A48 48 0 0 1 50 98 A24 24 0 0 1 50 50 A24 24 0 0 0 50 2" fill="#CD2E3A"/>
  <path d="M50 2 A48 48 0 0 0 50 98 A24 24 0 0 0 50 50 A24 24 0 0 1 50 2" fill="#0047A0"/>
  <!-- Small center separator -->
  <circle cx="50" cy="50" r="7" fill="#ffffff"/>
  <!-- Trigrams (black bars) -->
  <g stroke="#000000" stroke-width="2.8" stroke-linecap="round">
    <!-- Top left -->
    <line x1="16" y1="16" x2="32" y2="16"/>
    <line x1="16" y1="21" x2="32" y2="21"/>
    <line x1="16" y1="26" x2="32" y2="26"/>
    <!-- Top right -->
    <line x1="68" y1="16" x2="84" y2="16"/>
    <line x1="68" y1="21" x2="84" y2="21"/>
    <line x1="72" y1="26" x2="80" y2="26"/>
    <!-- Bottom left -->
    <line x1="16" y1="74" x2="32" y2="74"/>
    <line x1="20" y1="79" x2="28" y2="79"/>
    <line x1="16" y1="84" x2="32" y2="84"/>
    <!-- Bottom right -->
    <line x1="68" y1="74" x2="84" y2="74"/>
    <line x1="68" y1="79" x2="84" y2="79"/>
    <line x1="68" y1="84" x2="84" y2="84"/>
  </g>
</svg>